<svg xmlns="http://www.w3.org/2000/svg" width="212" height="150" viewBox="0 0 212 150"><path fill="none" stroke="#00ABF3" stroke-miterlimit="50" stroke-width="3.5" d="M8 81v15M8 108v15M15 89H0M15 116H0M36 81v15M36 108v15M43 89H28M43 116H28M64 81v15M64 108v15M71 89H56M71 116H56M92 81v15M92 108v15M100 89H85M100 116H85M8 54v15M8 27v15M15 62H0M15 35H0M36 54v15M36 27v15M43 62H28M43 35H28M8 0v15M120 0v15M120 27v15M15 8H0M128 8h-15M128 35h-15M36 0v15M148 0v15M148 27v15M43 8H28M156 8h-15M156 35h-15M64 54v15M71 62H56M92 54v15M100 62H85M64 0v15M176 0v15M176 27v15M71 8H56M184 8h-15M184 35h-15M92 0v15M205 0v15M205 27v15M100 8H85M212 8h-15M212 35h-15M120 54v15M128 62h-15M148 54v15M156 62h-15M176 54v15M184 62h-15M205 54v15M212 62h-15M120 81v15M120 108v15M128 89h-15M128 116h-15M148 81v15M148 108v15M156 89h-15M156 116h-15M176 81v15M176 108v15M184 89h-15M184 116h-15M205 81v15M205 108v15M212 89h-15M212 116h-15M8 135v15M15 143H0M36 135v15M43 143H28M64 135v15M71 143H56M92 135v15M100 143H85M120 135v15M128 143h-15M148 135v15M156 143h-15M176 135v15M184 143h-15M205 135v15M212 143h-15M64 27v15M71 35H56M92 27v15M100 35H85"/></svg>